<svg t="1599631059891" class="icon" viewBox="0 0 1024 1024" version="1.1" xmlns="http://www.w3.org/2000/svg" p-id="1120" width="200" height="200"><path d="M910.222222 0c30.805333 0 57.457778 11.264 80.014222 33.763556C1012.736 56.32 1024 82.972444 1024 113.777778v568.888889c0 30.805333-11.264 57.457778-33.763556 79.985777C967.68 785.180444 941.027556 796.444444 910.222222 796.444444H113.777778c-30.805333 0-57.457778-11.264-79.985778-33.792C11.264 740.152889 0 713.472 0 682.666667v-568.888889c0-30.805333 11.264-57.486222 33.792-80.014222C56.291556 11.264 82.972444 0 113.777778 0z m56.888889 682.666667v-568.888889c0-15.416889-5.632-28.728889-16.896-39.992889A54.670222 54.670222 0 0 0 910.222222 56.888889H113.777778c-15.416889 0-28.728889 5.632-39.992889 16.896A54.670222 54.670222 0 0 0 56.888889 113.777778v568.888889c0 15.416889 5.632 28.728889 16.896 39.992889 11.264 11.264 24.576 16.896 39.992889 16.896h796.444444c15.416889 0 28.728889-5.632 39.992889-16.896 11.264-11.264 16.896-24.576 16.896-39.992889z m-128-227.555556c9.472 0 14.222222 4.750222 14.222222 14.222222v28.444445c0 9.472-4.750222 14.222222-14.222222 14.222222h-199.111111c-9.472 0-14.222222-4.750222-14.222222-14.222222v-28.444445c0-9.472 4.750222-14.222222 14.222222-14.222222z m0-113.777778c9.472 0 14.222222 4.750222 14.222222 14.222223v28.444444c0 9.472-4.750222 14.222222-14.222222 14.222222h-199.111111c-9.472 0-14.222222-4.750222-14.222222-14.222222v-28.444444c0-9.472 4.750222-14.222222 14.222222-14.222223z m0-113.777777c9.472 0 14.222222 4.750222 14.222222 14.222222v28.444444c0 9.472-4.750222 14.222222-14.222222 14.222222h-199.111111c-9.472 0-14.222222-4.750222-14.222222-14.222222v-28.444444c0-9.472 4.750222-14.222222 14.222222-14.222222z m-369.777778 186.652444C442.083556 441.486222 408.888889 455.111111 369.777778 455.111111s-72.590222-13.937778-100.437334-41.784889C241.464889 385.479111 227.555556 352 227.555556 312.888889s13.937778-72.590222 41.784888-100.437333c27.847111-27.875556 61.326222-41.813333 100.437334-41.813334s72.590222 13.937778 100.437333 41.813334c27.875556 27.847111 41.813333 61.326222 41.813333 100.408888 0 39.139556-14.222222 72.903111-42.666666 101.347556z m-39.111111-161.763556A82.289778 82.289778 0 0 0 369.777778 227.555556c-23.694222 0-43.861333 8.305778-60.444445 24.888888A82.289778 82.289778 0 0 0 284.444444 312.888889c0 23.694222 8.305778 43.861333 24.888889 60.444444A82.289778 82.289778 0 0 0 369.777778 398.222222c23.694222 0 43.861333-8.305778 60.444444-24.888889A82.289778 82.289778 0 0 0 455.111111 312.888889c0-23.694222-8.305778-43.861333-24.888889-60.444445zM453.347556 483.555556c41.472 0 73.472 15.985778 96 47.985777 13.027556 20.167111 19.541333 42.666667 19.541333 67.555556v40.903111c0 9.472-4.750222 14.222222-14.222222 14.222222h-28.444445c-9.472 0-14.222222-4.750222-14.222222-14.222222v-40.903111c0-13.027556-3.555556-24.888889-10.666667-35.555556-10.666667-15.388444-26.652444-23.096889-47.985777-23.096889-5.944889 0-16.896 2.076444-32.910223 6.229334a201.159111 201.159111 0 0 1-50.659555 6.200889 201.159111 201.159111 0 0 1-50.659556-6.200889c-16.014222-4.152889-26.965333-6.257778-32.881778-6.257778-21.333333 0-37.347556 7.736889-48.014222 23.125333-7.111111 10.666667-10.666667 22.528-10.666666 35.555556v40.903111c0 9.472-4.750222 14.222222-14.222223 14.222222h-28.444444c-9.472 0-14.222222-4.750222-14.222222-14.222222v-40.903111c0-24.888889 6.542222-47.388444 19.569777-67.555556C212.736 499.541333 244.736 483.555556 286.236444 483.555556c11.832889 0 25.173333 2.076444 39.992889 6.229333 14.791111 4.124444 29.326222 6.200889 43.548445 6.200889s28.728889-2.076444 43.548444-6.200889c14.819556-4.152889 28.16-6.257778 40.021334-6.257778z" p-id="1121"></path></svg>