<svg t="1599631646101" class="icon" viewBox="0 0 1024 1024" version="1.1" xmlns="http://www.w3.org/2000/svg" p-id="524" width="200" height="200"><path d="M512 128l-12 4.992-192 77.024-20 8v214.976l-172.992 75.008-19.008 8.992v258.016l16 9.984 192 107.008 15.008 8 15.008-7.008L512 804l178.016 88.992 14.976 7.008 15.008-8 192-107.008 16-9.984V516.992l-19.008-8.992L736 432.992V217.984l-20-8-192-76.992L512 128z m0 70.016l104.992 40.96L512 280l-104.992-40.992L512 197.984z m-160 88l128 48.96v156.032l-128-56.992V285.952z m320 0v147.968l-128 57.024v-156l128-48.992z m-352 203.968l116 51.008L320 598.016l-116-58.016L320 489.984z m384 0l116 50.016L704 598.016l-116-57.024 36-16 80-34.976zM160 589.024l128 64v157.024l-128-72v-149.024z m704 0v149.024l-128 72v-157.024l128-64z m-384 2.016v156.992l-128 64v-159.008l128-61.984z m64 0l128 61.984v159.008l-128-64v-156.992z" p-id="525"></path></svg>