<svg t="1599631992318" class="icon" viewBox="0 0 1304 1024" version="1.1" xmlns="http://www.w3.org/2000/svg" p-id="546" width="200" height="200"><path d="M556.602 930.909h-465.454v-93.091h465.454v93.091zM835.874 558.545h-744.728v-93.091h744.728v93.091zM370.42 186.181h-279.273v-93.091h279.273v93.091zM-1.944 791.273v186.183q0 18.909 13.818 32.727t32.727 13.818h1210.182q18.909 0 32.727-13.818t13.818-32.727v-186.183q0-18.909-13.818-32.727t-32.727-13.818h-1210.182q-18.909 0-32.727 13.818t-13.818 32.727zM-1.944 418.909v186.183q0 18.909 13.818 32.727t32.727 13.818h1210.182q18.909 0 32.727-13.818t13.818-32.727v-186.183q0-18.909-13.818-32.727t-32.727-13.818h-1210.182q-18.909 0-32.727 13.818t-13.818 32.727zM-1.944 46.545v186.183q0 18.909 13.818 32.727t32.727 13.818h1210.182q18.909 0 32.727-13.818t13.818-32.727v-186.183q0-18.909-13.818-32.727t-32.727-13.818h-1210.182q-18.909 0-32.727 13.818t-13.818 32.727z" p-id="547"></path></svg>