<svg t="1599631902001" class="icon" viewBox="0 0 1024 1024" version="1.1" xmlns="http://www.w3.org/2000/svg" p-id="558" width="200" height="200"><path d="M875.019246 938.274874c0 24.708116 0 24.708116-24.074575 24.708116H339.676728v-110.23621a83.62747 83.62747 0 0 0-81.631815-82.993929H127.440345V94.397675c0-33.577696 0-33.577696 32.310614-33.577697h187.528266l7.602498-60.186437a237.387978 237.387978 0 0 0-24.644762 0.031678L330.807148 0.633541H161.651583c-63.354144 0-92.49705 28.509365-92.49705 94.397675v679.789966A106.118191 106.118191 0 0 0 100.198063 855.280945c51.316857 48.782691 100.733089 96.298299 142.546825 137.478493 16.788848 18.72115 41.021808 30.441666 68.010673 30.441666l1.773916-0.031677H312.434446h538.510225a74.124349 74.124349 0 0 0 84.197657-85.338032l0.063355 0.443479V565.118965h-60.186437z m-592.994789 9.503122l-122.90704-119.105791h98.832465c13.30437 0 24.074575 10.770204 24.074575 24.074575z" fill="" p-id="559"></path><path d="M265.552379 706.398707h461.218169l3.072676 0.063354c9.344736 0 18.309348-1.647208 26.640418-4.65653l-0.53851 0.158386a29.871479 29.871479 0 0 0 17.137296-26.957189l-0.031677-1.61553v0.063354c0-30.409989-25.341658-30.409989-36.111862-30.409989H257.348018a42.352245 42.352245 0 0 0-31.138562 9.566475l0.063354-0.063354a29.618062 29.618062 0 0 0-7.57082 21.63544v-0.063354c1.267083 28.509365 31.677072 32.310613 46.882067 32.310614zM301.0307 535.342518h195.130764c12.670829 0 43.080818 0 43.080818-31.677072 0-19.639785-14.571453-31.677072-39.913111-31.677072h-253.416576a42.320568 42.320568 0 0 0-32.975832 10.801881l0.031677-0.031677a25.911845 25.911845 0 0 0-7.57082 22.965877l-0.031677-0.158385c0 28.509365 28.509365 28.509365 41.180193 28.509365zM676.720775 409.267771a204.317115 204.317115 0 0 0 109.792731-32.183905l-0.823603 0.506833 102.000171 115.304542a30.409989 30.409989 0 0 0 22.775815 10.770205h0.031677a29.713094 29.713094 0 0 0 19.671462-7.634175l-0.031677 0.031677a29.776448 29.776448 0 0 0 0-42.447276l-98.832465-115.938084a204.000344 204.000344 0 1 0-359.18632-132.410161 204.000344 204.000344 0 0 0 204.000344 204.000344h0.633542-0.031677z m0-348.447793h0.633541a144.447449 144.447449 0 1 1-144.447448 144.447449v-0.665219 0.031677a144.447449 144.447449 0 0 1 143.78223-143.813907h0.031677z" fill="" p-id="560"></path></svg>